<?xml version="1.0" encoding="UTF-8"?>
<!DOCTYPE svg PUBLIC "-//W3C//DTD SVG 1.1//EN" "http://www.w3.org/Graphics/SVG/1.1/DTD/svg11.dtd"><svg xmlns:svg="http://www.w3.org/2000/svg"
										xmlns="http://www.w3.org/2000/svg"
										version="1.0"
										width="600"
    height="500" viewBox="0 0 21000 15000" preserveAspectRatio="xMidYMid" fill-rule="evenodd"><g visibility="visible" id="Default"><desc>Master slide</desc></g><g visibility="visible" id="page1"><desc>Slide</desc><g><desc>Drawing</desc><g><g style="stroke:none;fill:rgb(0,0,0)"><path d="M 5244,4757 L 15427,4757 12881,13667 7789,13667 5244,4757 Z"/></g><g style="stroke:rgb(0,0,0);fill:none"><path style="fill:none" d="M 5244,4757 L 15427,4757 12881,13667 7789,13667 5244,4757"/></g><g/></g></g><g><desc>Drawing</desc><g><g style="stroke:none;fill:rgb(0,0,0)"><path d="M 874,13666 L 19966,13666 16312,14940 4527,14940 874,13666 Z"/></g><g style="stroke:rgb(0,0,0);fill:none"><path style="fill:none" d="M 874,13666 L 19966,13666 16312,14940 4527,14940 874,13666"/></g><g/></g></g><g><desc>Drawing</desc><g><g style="stroke:none;fill:rgb(0,0,0)"><path d="M 14867,6110 L 15122,6007 15408,5917 15713,5850 15869,5827 16026,5812 16182,5806 16336,5811 16485,5827 16629,5856 16767,5897 16896,5953 17016,6023 17124,6110 17206,6194 17273,6281 17327,6370 17368,6461 17397,6553 17414,6646 17421,6741 17418,6835 17405,6930 17384,7024 17356,7117 17320,7209 17279,7299 17232,7387 17124,7556 16854,7915 16580,8246 16267,8616 15879,9098 15783,9203 15637,9335 15231,9660 14726,10029 14186,10396 13675,10718 13258,10950 13105,11018 13046,11038 13000,11047 12982,11047 12968,11045 12957,11039 12954,11035 12951,11031 12948,11019 12949,11004 12955,10986 12965,10964 13548,9845 14130,9471 14567,9185 14786,9031 15005,8864 15223,8680 15442,8473 15660,8240 15879,7977 16203,7604 16374,7402 16453,7301 16523,7199 16582,7099 16628,7000 16645,6952 16657,6904 16665,6857 16667,6811 16664,6766 16655,6722 16640,6679 16619,6637 16591,6596 16555,6557 16513,6520 16462,6484 16421,6462 16375,6445 16324,6433 16269,6425 16148,6421 16016,6432 15875,6455 15728,6487 15434,6573 15158,6671 14929,6763 14771,6831 14728,6851 14717,6856 14714,6858 14713,6858 14713,6858 14713,6858 14713,6858 14814,6264 14867,6110 Z"/></g><g style="stroke:rgb(0,0,0);fill:none"><path style="fill:none" d="M 14867,6110 L 15122,6007 15408,5917 15713,5850 15869,5827 16026,5812 16182,5806 16336,5811 16485,5827 16629,5856 16767,5897 16896,5953 17016,6023 17124,6110 17206,6194 17273,6281 17327,6370 17368,6461 17397,6553 17414,6646 17421,6741 17418,6835 17405,6930 17384,7024 17356,7117 17320,7209 17279,7299 17232,7387 17124,7556 16854,7915 16580,8246 16267,8616 15879,9098 15783,9203 15637,9335 15231,9660 14726,10029 14186,10396 13675,10718 13258,10950 13105,11018 13046,11038 13000,11047 12982,11047 12968,11045 12957,11039 12954,11035 12951,11031 12948,11019 12949,11004 12955,10986 12965,10964 13548,9845 14130,9471 14567,9185 14786,9031 15005,8864 15223,8680 15442,8473 15660,8240 15879,7977 16203,7604 16374,7402 16453,7301 16523,7199 16582,7099 16628,7000 16645,6952 16657,6904 16665,6857 16667,6811 16664,6766 16655,6722 16640,6679 16619,6637 16591,6596 16555,6557 16513,6520 16462,6484 16421,6462 16375,6445 16324,6433 16269,6425 16148,6421 16016,6432 15875,6455 15728,6487 15434,6573 15158,6671 14929,6763 14771,6831 14728,6851 14717,6856 14714,6858 14713,6858 14713,6858 14713,6858 14713,6858 14814,6264 14867,6110"/></g><g/></g></g><g><desc>Drawing</desc><g><g style="stroke:none;fill:rgb(0,0,0)"><path d="M 8311,815 L 8531,962 8448,1087 8365,1212 8145,1065 8228,940 8311,815 Z"/><path d="M 8448,1087 L 8531,962 8539,968 8448,1087 Z"/><path d="M 8539,968 L 8725,1109 8634,1228 8542,1348 8357,1206 8448,1087 8539,968 Z"/><path d="M 8634,1228 L 8725,1109 8734,1117 8634,1228 Z"/><path d="M 8734,1117 L 8886,1253 8786,1365 8686,1477 8534,1340 8634,1228 8734,1117 Z"/><path d="M 8786,1365 L 8886,1253 8896,1262 8786,1365 Z"/><path d="M 8896,1262 L 9018,1393 8909,1496 8799,1598 8677,1467 8786,1365 8896,1262 Z"/><path d="M 8909,1496 L 9018,1393 9028,1405 8909,1496 Z"/><path d="M 9028,1405 L 9123,1531 9003,1621 8883,1711 8789,1586 8909,1496 9028,1405 Z"/><path d="M 9003,1621 L 9123,1531 9133,1546 9003,1621 Z"/><path d="M 9133,1546 L 9202,1665 9072,1740 8942,1815 8873,1696 9003,1621 9133,1546 Z"/><path d="M 9072,1740 L 9202,1665 9211,1684 9072,1740 Z"/><path d="M 9211,1684 L 9257,1796 9118,1853 8979,1909 8933,1796 9072,1740 9211,1684 Z"/><path d="M 9118,1853 L 9257,1796 9262,1813 9118,1853 Z"/><path d="M 9262,1813 L 9277,1867 9132,1907 8988,1946 8973,1892 9118,1853 9262,1813 Z"/><path d="M 9132,1907 L 9277,1867 9280,1879 9132,1907 Z"/><path d="M 9280,1879 L 9290,1931 9142,1959 8995,1986 8985,1934 9132,1907 9280,1879 Z"/><path d="M 9142,1959 L 9290,1931 9291,1943 9142,1959 Z"/><path d="M 9291,1943 L 9297,1994 9147,2009 8998,2024 8993,1974 9142,1959 9291,1943 Z"/><path d="M 9147,2009 L 9297,1994 9297,2007 9147,2009 Z"/><path d="M 9297,2007 L 9298,2055 9148,2058 8998,2060 8997,2011 9147,2009 9297,2007 Z"/><path d="M 9148,2058 L 9298,2055 9298,2068 9148,2058 Z"/><path d="M 9298,2068 L 9295,2115 9145,2104 8995,2094 8999,2047 9148,2058 9298,2068 Z"/><path d="M 9145,2104 L 9295,2115 9293,2128 9145,2104 Z"/><path d="M 9293,2128 L 9286,2173 9138,2149 8990,2126 8997,2081 9145,2104 9293,2128 Z"/><path d="M 9138,2149 L 9286,2173 9284,2185 9138,2149 Z"/><path d="M 9284,2185 L 9273,2228 9127,2192 8982,2157 8992,2114 9138,2149 9284,2185 Z"/><path d="M 9127,2192 L 9273,2228 9270,2240 9127,2192 Z"/><path d="M 9270,2240 L 9256,2281 9114,2233 8971,2186 8985,2145 9127,2192 9270,2240 Z"/><path d="M 9114,2233 L 9256,2281 9249,2297 9114,2233 Z"/><path d="M 9249,2297 L 9213,2374 9078,2310 8942,2246 8978,2170 9114,2233 9249,2297 Z"/><path d="M 9078,2310 L 9213,2374 9203,2393 9078,2310 Z"/><path d="M 9203,2393 L 9157,2461 9032,2378 8907,2295 8953,2227 9078,2310 9203,2393 Z"/><path d="M 9032,2378 L 9157,2461 9145,2477 9032,2378 Z"/><path d="M 9145,2477 L 9093,2537 8980,2438 8867,2339 8919,2279 9032,2378 9145,2477 Z"/><path d="M 8980,2438 L 9093,2537 9080,2549 8980,2438 Z"/><path d="M 9080,2549 L 9023,2601 8923,2489 8823,2377 8880,2326 8980,2438 9080,2549 Z"/><path d="M 8923,2489 L 9023,2601 9010,2611 8923,2489 Z"/><path d="M 9010,2611 L 8951,2653 8864,2531 8777,2409 8836,2367 8923,2489 9010,2611 Z"/><path d="M 8864,2531 L 8951,2653 8946,2657 8864,2531 Z"/><path d="M 8946,2657 L 8712,2809 8630,2683 8549,2557 8782,2405 8864,2531 8946,2657 Z"/><path d="M 8630,2683 L 8540,2563 8549,2557 8630,2683 Z"/><path d="M 8721,2802 L 8614,2884 8523,2765 8432,2645 8540,2563 8630,2683 8721,2802 Z"/><path d="M 8523,2765 L 8424,2652 8432,2645 8523,2765 Z"/><path d="M 8622,2878 L 8572,2921 8473,2808 8375,2695 8424,2652 8523,2765 8622,2878 Z"/><path d="M 8473,2808 L 8368,2701 8375,2695 8473,2808 Z"/><path d="M 8578,2915 L 8532,2961 8427,2854 8322,2746 8368,2701 8473,2808 8578,2915 Z"/><path d="M 8427,2854 L 8315,2753 8322,2746 8427,2854 Z"/><path d="M 8539,2954 L 8496,3001 8384,2901 8272,2801 8315,2753 8427,2854 8539,2954 Z"/><path d="M 8384,2901 L 8265,2810 8272,2801 8384,2901 Z"/><path d="M 8503,2992 L 8465,3043 8345,2952 8226,2861 8265,2810 8384,2901 8503,2992 Z"/><path d="M 8345,2952 L 8219,2871 8226,2861 8345,2952 Z"/><path d="M 8472,3032 L 8438,3086 8311,3005 8185,2925 8219,2871 8345,2952 8472,3032 Z"/><path d="M 8311,3005 L 8178,2937 8185,2925 8311,3005 Z"/><path d="M 8445,3073 L 8416,3130 8283,3062 8149,2994 8178,2937 8311,3005 8445,3073 Z"/><path d="M 8283,3062 L 8143,3008 8149,2994 8283,3062 Z"/><path d="M 8423,3116 L 8399,3176 8259,3122 8120,3068 8143,3008 8283,3062 8423,3116 Z"/><path d="M 8259,3122 L 8115,3083 8120,3068 8259,3122 Z"/><path d="M 8404,3161 L 8387,3225 8242,3186 8097,3147 8115,3083 8259,3122 8404,3161 Z"/><path d="M 8242,3186 L 8094,3163 8097,3147 8242,3186 Z"/><path d="M 8390,3209 L 8380,3277 8232,3254 8083,3230 8094,3163 8242,3186 8390,3209 Z"/><path d="M 8232,3254 L 8082,3246 8083,3230 8232,3254 Z"/><path d="M 8381,3261 L 8378,3334 8228,3326 8078,3318 8082,3246 8232,3254 8381,3261 Z"/><path d="M 8228,3326 L 8078,3333 8078,3318 8228,3326 Z"/><path d="M 8378,3319 L 8380,3356 8230,3363 8080,3371 8078,3333 8228,3326 8378,3319 Z"/><path d="M 8230,3363 L 8081,3384 8080,3371 8230,3363 Z"/><path d="M 8378,3342 L 8384,3379 8235,3400 8087,3422 8081,3384 8230,3363 8378,3342 Z"/><path d="M 8235,3400 L 8090,3440 8087,3422 8235,3400 Z"/><path d="M 8380,3361 L 8400,3435 8255,3474 8111,3514 8090,3440 8235,3400 8380,3361 Z"/><path d="M 8255,3474 L 8118,3534 8111,3514 8255,3474 Z"/><path d="M 8393,3415 L 8424,3487 8287,3547 8149,3606 8118,3534 8255,3474 8393,3415 Z"/><path d="M 8287,3547 L 8157,3621 8149,3606 8287,3547 Z"/><path d="M 8417,3472 L 8458,3543 8327,3618 8197,3692 8157,3621 8287,3547 8417,3472 Z"/><path d="M 8327,3618 L 8205,3704 8197,3692 8327,3618 Z"/><path d="M 8450,3532 L 8498,3600 8376,3687 8253,3773 8205,3704 8327,3618 8450,3532 Z"/><path d="M 8376,3687 L 8259,3781 8253,3773 8376,3687 Z"/><path d="M 8492,3592 L 8545,3657 8429,3752 8313,3847 8259,3781 8376,3687 8492,3592 Z"/><path d="M 8429,3752 L 8321,3857 8313,3847 8429,3752 Z"/><path d="M 8537,3648 L 8654,3769 8546,3873 8438,3977 8321,3857 8429,3752 8537,3648 Z"/><path d="M 8546,3873 L 8447,3986 8438,3977 8546,3873 Z"/><path d="M 8645,3760 L 8761,3862 8663,3975 8564,4088 8447,3986 8546,3873 8645,3760 Z"/><path d="M 8663,3975 L 8571,4094 8564,4088 8663,3975 Z"/><path d="M 8754,3856 L 8856,3935 8765,4053 8673,4172 8571,4094 8663,3975 8754,3856 Z"/><path d="M 8765,4053 L 8678,4176 8673,4172 8765,4053 Z"/><path d="M 8851,3931 L 8923,3981 8837,4104 8750,4227 8678,4176 8765,4053 8851,3931 Z"/><path d="M 8837,4104 L 8754,4229 8750,4227 8837,4104 Z"/><path d="M 8919,3979 L 8940,3992 8857,4117 8774,4243 8754,4229 8837,4104 8919,3979 Z"/><path d="M 8857,4117 L 8776,4244 8774,4243 8857,4117 Z"/><path d="M 8938,3991 L 8943,3995 8862,4121 8781,4247 8776,4244 8857,4117 8938,3991 Z"/><path d="M 8862,4121 L 8782,4247 8781,4247 8862,4121 Z"/><path d="M 8943,3994 L 8944,3995 8864,4122 8783,4248 8782,4247 8862,4121 8943,3994 Z"/><path d="M 8864,4122 L 8783,4249 8783,4248 8864,4122 Z"/><path d="M 8944,3995 L 8944,3995 8864,4122 8784,4249 8783,4249 8864,4122 8944,3995 Z"/><path d="M 8864,4122 L 8784,4249 8784,4249 8864,4122 Z"/><path d="M 8944,3995 L 8944,3995 8864,4122 8784,4249 8784,4249 8864,4122 8944,3995 Z"/><path d="M 8864,4122 L 8784,4249 8784,4249 8864,4122 Z"/><path d="M 8944,3995 L 8944,3995 8864,4122 8784,4249 8784,4249 8864,4122 8944,3995 Z"/><path d="M 8864,4122 L 8784,4249 8784,4249 8864,4122 Z"/><path d="M 8944,3995 L 8944,3995 8864,4122 8784,4249 8784,4249 8864,4122 8944,3995 Z"/></g><g/></g></g><g><desc>Drawing</desc><g><g style="stroke:none;fill:rgb(0,0,0)"><path d="M 10220,815 L 10440,962 10357,1087 10274,1212 10054,1065 10137,940 10220,815 Z"/><path d="M 10357,1087 L 10440,962 10448,968 10357,1087 Z"/><path d="M 10448,968 L 10634,1109 10543,1228 10451,1348 10266,1206 10357,1087 10448,968 Z"/><path d="M 10543,1228 L 10634,1109 10643,1117 10543,1228 Z"/><path d="M 10643,1117 L 10795,1253 10695,1365 10595,1477 10443,1340 10543,1228 10643,1117 Z"/><path d="M 10695,1365 L 10795,1253 10805,1262 10695,1365 Z"/><path d="M 10805,1262 L 10927,1393 10818,1496 10708,1598 10586,1467 10695,1365 10805,1262 Z"/><path d="M 10818,1496 L 10927,1393 10937,1405 10818,1496 Z"/><path d="M 10937,1405 L 11032,1531 10912,1621 10792,1711 10698,1586 10818,1496 10937,1405 Z"/><path d="M 10912,1621 L 11032,1531 11042,1546 10912,1621 Z"/><path d="M 11042,1546 L 11111,1665 10981,1740 10851,1815 10782,1696 10912,1621 11042,1546 Z"/><path d="M 10981,1740 L 11111,1665 11120,1684 10981,1740 Z"/><path d="M 11120,1684 L 11166,1796 11027,1853 10888,1909 10842,1796 10981,1740 11120,1684 Z"/><path d="M 11027,1853 L 11166,1796 11171,1813 11027,1853 Z"/><path d="M 11171,1813 L 11186,1867 11041,1907 10897,1946 10882,1892 11027,1853 11171,1813 Z"/><path d="M 11041,1907 L 11186,1867 11189,1879 11041,1907 Z"/><path d="M 11189,1879 L 11199,1931 11051,1959 10904,1986 10894,1934 11041,1907 11189,1879 Z"/><path d="M 11051,1959 L 11199,1931 11200,1943 11051,1959 Z"/><path d="M 11200,1943 L 11206,1994 11056,2009 10907,2024 10902,1974 11051,1959 11200,1943 Z"/><path d="M 11056,2009 L 11206,1994 11206,2007 11056,2009 Z"/><path d="M 11206,2007 L 11207,2055 11057,2058 10907,2060 10906,2011 11056,2009 11206,2007 Z"/><path d="M 11057,2058 L 11207,2055 11207,2068 11057,2058 Z"/><path d="M 11207,2068 L 11204,2115 11054,2104 10904,2094 10908,2047 11057,2058 11207,2068 Z"/><path d="M 11054,2104 L 11204,2115 11202,2128 11054,2104 Z"/><path d="M 11202,2128 L 11195,2173 11047,2149 10899,2126 10906,2081 11054,2104 11202,2128 Z"/><path d="M 11047,2149 L 11195,2173 11193,2185 11047,2149 Z"/><path d="M 11193,2185 L 11182,2228 11036,2192 10891,2157 10901,2114 11047,2149 11193,2185 Z"/><path d="M 11036,2192 L 11182,2228 11179,2240 11036,2192 Z"/><path d="M 11179,2240 L 11165,2281 11023,2233 10880,2186 10894,2145 11036,2192 11179,2240 Z"/><path d="M 11023,2233 L 11165,2281 11158,2297 11023,2233 Z"/><path d="M 11158,2297 L 11122,2374 10987,2310 10851,2246 10887,2170 11023,2233 11158,2297 Z"/><path d="M 10987,2310 L 11122,2374 11112,2393 10987,2310 Z"/><path d="M 11112,2393 L 11066,2461 10941,2378 10816,2295 10862,2227 10987,2310 11112,2393 Z"/><path d="M 10941,2378 L 11066,2461 11054,2477 10941,2378 Z"/><path d="M 11054,2477 L 11002,2537 10889,2438 10776,2339 10828,2279 10941,2378 11054,2477 Z"/><path d="M 10889,2438 L 11002,2537 10989,2549 10889,2438 Z"/><path d="M 10989,2549 L 10932,2601 10832,2489 10732,2377 10789,2326 10889,2438 10989,2549 Z"/><path d="M 10832,2489 L 10932,2601 10919,2611 10832,2489 Z"/><path d="M 10919,2611 L 10860,2653 10773,2531 10686,2409 10745,2367 10832,2489 10919,2611 Z"/><path d="M 10773,2531 L 10860,2653 10855,2657 10773,2531 Z"/><path d="M 10855,2657 L 10621,2809 10539,2683 10458,2557 10691,2405 10773,2531 10855,2657 Z"/><path d="M 10539,2683 L 10449,2563 10458,2557 10539,2683 Z"/><path d="M 10630,2802 L 10523,2884 10432,2765 10341,2645 10449,2563 10539,2683 10630,2802 Z"/><path d="M 10432,2765 L 10333,2652 10341,2645 10432,2765 Z"/><path d="M 10531,2878 L 10481,2921 10382,2808 10284,2695 10333,2652 10432,2765 10531,2878 Z"/><path d="M 10382,2808 L 10277,2701 10284,2695 10382,2808 Z"/><path d="M 10487,2915 L 10441,2961 10336,2854 10231,2746 10277,2701 10382,2808 10487,2915 Z"/><path d="M 10336,2854 L 10224,2753 10231,2746 10336,2854 Z"/><path d="M 10448,2954 L 10405,3001 10293,2901 10181,2801 10224,2753 10336,2854 10448,2954 Z"/><path d="M 10293,2901 L 10174,2810 10181,2801 10293,2901 Z"/><path d="M 10412,2992 L 10374,3043 10254,2952 10135,2861 10174,2810 10293,2901 10412,2992 Z"/><path d="M 10254,2952 L 10128,2871 10135,2861 10254,2952 Z"/><path d="M 10381,3032 L 10347,3086 10220,3005 10094,2925 10128,2871 10254,2952 10381,3032 Z"/><path d="M 10220,3005 L 10087,2937 10094,2925 10220,3005 Z"/><path d="M 10354,3073 L 10325,3130 10192,3062 10058,2994 10087,2937 10220,3005 10354,3073 Z"/><path d="M 10192,3062 L 10052,3008 10058,2994 10192,3062 Z"/><path d="M 10332,3116 L 10308,3176 10168,3122 10029,3068 10052,3008 10192,3062 10332,3116 Z"/><path d="M 10168,3122 L 10024,3083 10029,3068 10168,3122 Z"/><path d="M 10313,3161 L 10296,3225 10151,3186 10006,3147 10024,3083 10168,3122 10313,3161 Z"/><path d="M 10151,3186 L 10003,3163 10006,3147 10151,3186 Z"/><path d="M 10299,3209 L 10289,3277 10141,3254 9992,3230 10003,3163 10151,3186 10299,3209 Z"/><path d="M 10141,3254 L 9991,3246 9992,3230 10141,3254 Z"/><path d="M 10290,3261 L 10287,3334 10137,3326 9987,3318 9991,3246 10141,3254 10290,3261 Z"/><path d="M 10137,3326 L 9987,3333 9987,3318 10137,3326 Z"/><path d="M 10287,3319 L 10289,3356 10139,3363 9989,3371 9987,3333 10137,3326 10287,3319 Z"/><path d="M 10139,3363 L 9990,3384 9989,3371 10139,3363 Z"/><path d="M 10287,3342 L 10293,3379 10144,3400 9996,3422 9990,3384 10139,3363 10287,3342 Z"/><path d="M 10144,3400 L 9999,3440 9996,3422 10144,3400 Z"/><path d="M 10289,3361 L 10309,3435 10164,3474 10020,3514 9999,3440 10144,3400 10289,3361 Z"/><path d="M 10164,3474 L 10027,3534 10020,3514 10164,3474 Z"/><path d="M 10302,3415 L 10333,3487 10196,3547 10058,3606 10027,3534 10164,3474 10302,3415 Z"/><path d="M 10196,3547 L 10066,3621 10058,3606 10196,3547 Z"/><path d="M 10326,3472 L 10367,3543 10236,3618 10106,3692 10066,3621 10196,3547 10326,3472 Z"/><path d="M 10236,3618 L 10114,3704 10106,3692 10236,3618 Z"/><path d="M 10359,3532 L 10407,3600 10285,3687 10162,3773 10114,3704 10236,3618 10359,3532 Z"/><path d="M 10285,3687 L 10168,3781 10162,3773 10285,3687 Z"/><path d="M 10401,3592 L 10454,3657 10338,3752 10222,3847 10168,3781 10285,3687 10401,3592 Z"/><path d="M 10338,3752 L 10230,3857 10222,3847 10338,3752 Z"/><path d="M 10446,3648 L 10563,3769 10455,3873 10347,3977 10230,3857 10338,3752 10446,3648 Z"/><path d="M 10455,3873 L 10356,3986 10347,3977 10455,3873 Z"/><path d="M 10554,3760 L 10670,3862 10572,3975 10473,4088 10356,3986 10455,3873 10554,3760 Z"/><path d="M 10572,3975 L 10480,4094 10473,4088 10572,3975 Z"/><path d="M 10663,3856 L 10765,3935 10674,4053 10582,4172 10480,4094 10572,3975 10663,3856 Z"/><path d="M 10674,4053 L 10587,4176 10582,4172 10674,4053 Z"/><path d="M 10760,3931 L 10832,3981 10746,4104 10659,4227 10587,4176 10674,4053 10760,3931 Z"/><path d="M 10746,4104 L 10663,4229 10659,4227 10746,4104 Z"/><path d="M 10828,3979 L 10849,3992 10766,4117 10683,4243 10663,4229 10746,4104 10828,3979 Z"/><path d="M 10766,4117 L 10685,4244 10683,4243 10766,4117 Z"/><path d="M 10847,3991 L 10852,3995 10771,4121 10690,4247 10685,4244 10766,4117 10847,3991 Z"/><path d="M 10771,4121 L 10691,4247 10690,4247 10771,4121 Z"/><path d="M 10852,3994 L 10853,3995 10773,4122 10692,4248 10691,4247 10771,4121 10852,3994 Z"/><path d="M 10773,4122 L 10692,4249 10692,4248 10773,4122 Z"/><path d="M 10853,3995 L 10853,3995 10773,4122 10693,4249 10692,4249 10773,4122 10853,3995 Z"/><path d="M 10773,4122 L 10693,4249 10693,4249 10773,4122 Z"/><path d="M 10853,3995 L 10853,3995 10773,4122 10693,4249 10693,4249 10773,4122 10853,3995 Z"/><path d="M 10773,4122 L 10693,4249 10693,4249 10773,4122 Z"/><path d="M 10853,3995 L 10853,3995 10773,4122 10693,4249 10693,4249 10773,4122 10853,3995 Z"/><path d="M 10773,4122 L 10693,4249 10693,4249 10773,4122 Z"/><path d="M 10853,3995 L 10853,3995 10773,4122 10693,4249 10693,4249 10773,4122 10853,3995 Z"/></g><g/></g></g><g><desc>Drawing</desc><g><g style="stroke:none;fill:rgb(0,0,0)"><path d="M 12129,815 L 12349,962 12266,1087 12183,1212 11963,1065 12046,940 12129,815 Z"/><path d="M 12266,1087 L 12349,962 12357,968 12266,1087 Z"/><path d="M 12357,968 L 12543,1109 12452,1228 12360,1348 12175,1206 12266,1087 12357,968 Z"/><path d="M 12452,1228 L 12543,1109 12552,1117 12452,1228 Z"/><path d="M 12552,1117 L 12704,1253 12604,1365 12504,1477 12352,1340 12452,1228 12552,1117 Z"/><path d="M 12604,1365 L 12704,1253 12714,1262 12604,1365 Z"/><path d="M 12714,1262 L 12836,1393 12727,1496 12617,1598 12495,1467 12604,1365 12714,1262 Z"/><path d="M 12727,1496 L 12836,1393 12846,1405 12727,1496 Z"/><path d="M 12846,1405 L 12941,1531 12821,1621 12701,1711 12607,1586 12727,1496 12846,1405 Z"/><path d="M 12821,1621 L 12941,1531 12951,1546 12821,1621 Z"/><path d="M 12951,1546 L 13020,1665 12890,1740 12760,1815 12691,1696 12821,1621 12951,1546 Z"/><path d="M 12890,1740 L 13020,1665 13029,1684 12890,1740 Z"/><path d="M 13029,1684 L 13075,1796 12936,1853 12797,1909 12751,1796 12890,1740 13029,1684 Z"/><path d="M 12936,1853 L 13075,1796 13080,1813 12936,1853 Z"/><path d="M 13080,1813 L 13095,1867 12950,1907 12806,1946 12791,1892 12936,1853 13080,1813 Z"/><path d="M 12950,1907 L 13095,1867 13098,1879 12950,1907 Z"/><path d="M 13098,1879 L 13108,1931 12960,1959 12813,1986 12803,1934 12950,1907 13098,1879 Z"/><path d="M 12960,1959 L 13108,1931 13109,1943 12960,1959 Z"/><path d="M 13109,1943 L 13115,1994 12965,2009 12816,2024 12811,1974 12960,1959 13109,1943 Z"/><path d="M 12965,2009 L 13115,1994 13115,2007 12965,2009 Z"/><path d="M 13115,2007 L 13116,2055 12966,2058 12816,2060 12815,2011 12965,2009 13115,2007 Z"/><path d="M 12966,2058 L 13116,2055 13116,2068 12966,2058 Z"/><path d="M 13116,2068 L 13113,2115 12963,2104 12813,2094 12817,2047 12966,2058 13116,2068 Z"/><path d="M 12963,2104 L 13113,2115 13111,2128 12963,2104 Z"/><path d="M 13111,2128 L 13104,2173 12956,2149 12808,2126 12815,2081 12963,2104 13111,2128 Z"/><path d="M 12956,2149 L 13104,2173 13102,2185 12956,2149 Z"/><path d="M 13102,2185 L 13091,2228 12945,2192 12800,2157 12810,2114 12956,2149 13102,2185 Z"/><path d="M 12945,2192 L 13091,2228 13088,2240 12945,2192 Z"/><path d="M 13088,2240 L 13074,2281 12932,2233 12789,2186 12803,2145 12945,2192 13088,2240 Z"/><path d="M 12932,2233 L 13074,2281 13067,2297 12932,2233 Z"/><path d="M 13067,2297 L 13031,2374 12896,2310 12760,2246 12796,2170 12932,2233 13067,2297 Z"/><path d="M 12896,2310 L 13031,2374 13021,2393 12896,2310 Z"/><path d="M 13021,2393 L 12975,2461 12850,2378 12725,2295 12771,2227 12896,2310 13021,2393 Z"/><path d="M 12850,2378 L 12975,2461 12963,2477 12850,2378 Z"/><path d="M 12963,2477 L 12911,2537 12798,2438 12685,2339 12737,2279 12850,2378 12963,2477 Z"/><path d="M 12798,2438 L 12911,2537 12898,2549 12798,2438 Z"/><path d="M 12898,2549 L 12841,2601 12741,2489 12641,2377 12698,2326 12798,2438 12898,2549 Z"/><path d="M 12741,2489 L 12841,2601 12828,2611 12741,2489 Z"/><path d="M 12828,2611 L 12769,2653 12682,2531 12595,2409 12654,2367 12741,2489 12828,2611 Z"/><path d="M 12682,2531 L 12769,2653 12764,2657 12682,2531 Z"/><path d="M 12764,2657 L 12530,2809 12448,2683 12367,2557 12600,2405 12682,2531 12764,2657 Z"/><path d="M 12448,2683 L 12358,2563 12367,2557 12448,2683 Z"/><path d="M 12539,2802 L 12432,2884 12341,2765 12250,2645 12358,2563 12448,2683 12539,2802 Z"/><path d="M 12341,2765 L 12242,2652 12250,2645 12341,2765 Z"/><path d="M 12440,2878 L 12390,2921 12291,2808 12193,2695 12242,2652 12341,2765 12440,2878 Z"/><path d="M 12291,2808 L 12186,2701 12193,2695 12291,2808 Z"/><path d="M 12396,2915 L 12350,2961 12245,2854 12140,2746 12186,2701 12291,2808 12396,2915 Z"/><path d="M 12245,2854 L 12133,2753 12140,2746 12245,2854 Z"/><path d="M 12357,2954 L 12314,3001 12202,2901 12090,2801 12133,2753 12245,2854 12357,2954 Z"/><path d="M 12202,2901 L 12083,2810 12090,2801 12202,2901 Z"/><path d="M 12321,2992 L 12283,3043 12163,2952 12044,2861 12083,2810 12202,2901 12321,2992 Z"/><path d="M 12163,2952 L 12037,2871 12044,2861 12163,2952 Z"/><path d="M 12290,3032 L 12256,3086 12129,3005 12003,2925 12037,2871 12163,2952 12290,3032 Z"/><path d="M 12129,3005 L 11996,2937 12003,2925 12129,3005 Z"/><path d="M 12263,3073 L 12234,3130 12101,3062 11967,2994 11996,2937 12129,3005 12263,3073 Z"/><path d="M 12101,3062 L 11961,3008 11967,2994 12101,3062 Z"/><path d="M 12241,3116 L 12217,3176 12077,3122 11938,3068 11961,3008 12101,3062 12241,3116 Z"/><path d="M 12077,3122 L 11933,3083 11938,3068 12077,3122 Z"/><path d="M 12222,3161 L 12205,3225 12060,3186 11915,3147 11933,3083 12077,3122 12222,3161 Z"/><path d="M 12060,3186 L 11912,3163 11915,3147 12060,3186 Z"/><path d="M 12208,3209 L 12198,3277 12050,3254 11901,3230 11912,3163 12060,3186 12208,3209 Z"/><path d="M 12050,3254 L 11900,3246 11901,3230 12050,3254 Z"/><path d="M 12199,3261 L 12196,3334 12046,3326 11896,3318 11900,3246 12050,3254 12199,3261 Z"/><path d="M 12046,3326 L 11896,3333 11896,3318 12046,3326 Z"/><path d="M 12196,3319 L 12198,3356 12048,3363 11898,3371 11896,3333 12046,3326 12196,3319 Z"/><path d="M 12048,3363 L 11899,3384 11898,3371 12048,3363 Z"/><path d="M 12196,3342 L 12202,3379 12053,3400 11905,3422 11899,3384 12048,3363 12196,3342 Z"/><path d="M 12053,3400 L 11908,3440 11905,3422 12053,3400 Z"/><path d="M 12198,3361 L 12218,3435 12073,3474 11929,3514 11908,3440 12053,3400 12198,3361 Z"/><path d="M 12073,3474 L 11936,3534 11929,3514 12073,3474 Z"/><path d="M 12211,3415 L 12242,3487 12105,3547 11967,3606 11936,3534 12073,3474 12211,3415 Z"/><path d="M 12105,3547 L 11975,3621 11967,3606 12105,3547 Z"/><path d="M 12235,3472 L 12276,3543 12145,3618 12015,3692 11975,3621 12105,3547 12235,3472 Z"/><path d="M 12145,3618 L 12023,3704 12015,3692 12145,3618 Z"/><path d="M 12268,3532 L 12316,3600 12194,3687 12071,3773 12023,3704 12145,3618 12268,3532 Z"/><path d="M 12194,3687 L 12077,3781 12071,3773 12194,3687 Z"/><path d="M 12310,3592 L 12363,3657 12247,3752 12131,3847 12077,3781 12194,3687 12310,3592 Z"/><path d="M 12247,3752 L 12139,3857 12131,3847 12247,3752 Z"/><path d="M 12355,3648 L 12472,3769 12364,3873 12256,3977 12139,3857 12247,3752 12355,3648 Z"/><path d="M 12364,3873 L 12265,3986 12256,3977 12364,3873 Z"/><path d="M 12463,3760 L 12579,3862 12481,3975 12382,4088 12265,3986 12364,3873 12463,3760 Z"/><path d="M 12481,3975 L 12389,4094 12382,4088 12481,3975 Z"/><path d="M 12572,3856 L 12674,3935 12583,4053 12491,4172 12389,4094 12481,3975 12572,3856 Z"/><path d="M 12583,4053 L 12496,4176 12491,4172 12583,4053 Z"/><path d="M 12669,3931 L 12741,3981 12655,4104 12568,4227 12496,4176 12583,4053 12669,3931 Z"/><path d="M 12655,4104 L 12572,4229 12568,4227 12655,4104 Z"/><path d="M 12737,3979 L 12758,3992 12675,4117 12592,4243 12572,4229 12655,4104 12737,3979 Z"/><path d="M 12675,4117 L 12594,4244 12592,4243 12675,4117 Z"/><path d="M 12756,3991 L 12761,3995 12680,4121 12599,4247 12594,4244 12675,4117 12756,3991 Z"/><path d="M 12680,4121 L 12600,4247 12599,4247 12680,4121 Z"/><path d="M 12761,3994 L 12762,3995 12682,4122 12601,4248 12600,4247 12680,4121 12761,3994 Z"/><path d="M 12682,4122 L 12601,4249 12601,4248 12682,4122 Z"/><path d="M 12762,3995 L 12762,3995 12682,4122 12602,4249 12601,4249 12682,4122 12762,3995 Z"/><path d="M 12682,4122 L 12602,4249 12602,4249 12682,4122 Z"/><path d="M 12762,3995 L 12762,3995 12682,4122 12602,4249 12602,4249 12682,4122 12762,3995 Z"/><path d="M 12682,4122 L 12602,4249 12602,4249 12682,4122 Z"/><path d="M 12762,3995 L 12762,3995 12682,4122 12602,4249 12602,4249 12682,4122 12762,3995 Z"/><path d="M 12682,4122 L 12602,4249 12602,4249 12682,4122 Z"/><path d="M 12762,3995 L 12762,3995 12682,4122 12602,4249 12602,4249 12682,4122 12762,3995 Z"/></g><g/></g></g></g></svg>